<svg xmlns="http://www.w3.org/2000/svg" width="150" height="150" fill="none" viewBox="0 0 150 150"><path fill="#fff" d="M6.912 82.376C7.584 83.144 8.64 83.144 9.408 82.184C10.848 80.264 13.344 77.288 16.032 77.288C18.144 77.288 19.584 78.728 21.024 79.976C23.424 81.992 26.592 84.104 30.816 84.104C37.92 84.104 44.448 74.984 44.448 74.984C45.12 74.312 45.12 73.256 44.64 72.68L40.8 68.168C40.128 67.4 39.072 67.4 38.208 68.36C36.672 70.184 34.176 73.352 31.584 73.352C29.088 73.352 27.36 71.528 25.728 70.28C23.52 68.456 20.544 66.344 16.896 66.344C9.696 66.344 2.88 75.464 2.88 75.464C2.304 76.136 2.208 77.096 2.784 77.768L6.912 82.376ZM48.2993 101H55.8833C56.6513 101 57.3233 100.424 57.6113 99.752L83.3393 36.2C83.9153 34.856 83.3393 33.8 82.1873 33.8H74.6993C73.7393 33.8 73.2593 34.376 72.9713 35.048L47.0512 98.6C46.4752 99.944 47.1472 101 48.2993 101ZM94.755 48.968C98.691 48.968 102.339 45.608 102.339 41.576C102.339 38.312 99.939 35.72 96.675 35.72C92.739 35.72 89.187 39.08 89.187 43.208C89.187 46.376 91.491 48.968 94.755 48.968ZM80.163 111.368C79.395 116.936 77.091 120.008 73.251 120.008C71.139 120.008 69.219 119.048 68.163 118.472C67.491 118.088 66.435 118.184 65.763 119.24L62.787 124.52C62.211 125.384 62.211 126.44 62.787 127.016C64.035 128.168 68.739 130.76 73.443 130.76C83.427 130.76 90.147 124.04 91.779 112.232L98.595 64.424C98.787 63.368 98.115 62.6 97.251 62.6H88.611C87.747 62.6 86.883 63.368 86.691 64.424L80.163 111.368ZM104.476 84.872C104.476 94.088 110.524 101.96 119.74 101.96C125.308 101.96 130.108 99.752 133.468 96.68C134.236 95.912 134.236 94.856 133.756 94.184L130.588 89.672C130.108 88.904 129.244 89.096 128.38 89.672C126.748 90.824 123.868 91.976 121.564 91.976C116.764 91.976 114.94 88.904 115.228 84.968C125.02 84.872 139.324 81.608 139.324 71.816C139.324 65.96 134.62 61.64 127.036 61.64C113.596 61.64 104.476 72.872 104.476 84.872ZM116.668 77.48C117.724 74.216 121.372 70.568 125.212 70.568C127.42 70.568 128.476 71.624 128.476 72.968C128.476 76.04 121.276 77.384 116.668 77.48Z"/></svg>