<?xml version="1.0" standalone="no"?>
<!DOCTYPE svg PUBLIC "-//W3C//DTD SVG 20010904//EN"
 "http://www.w3.org/TR/2001/REC-SVG-20010904/DTD/svg10.dtd">
<svg version="1.0" xmlns="http://www.w3.org/2000/svg"
 width="16.000000pt" height="16.000000pt" viewBox="0 0 16.000000 16.000000"
 preserveAspectRatio="xMidYMid meet">

<g transform="translate(0.000000,16.000000) scale(0.100000,-0.100000)"
fill="#000000" stroke="none">
<path d="M66 105 c-6 -22 -9 -24 -27 -14 -15 8 -24 8 -32 0 -8 -8 -4 -11 16
-11 15 0 27 -4 27 -10 0 -17 17 -11 23 8 2 9 8 25 12 35 4 9 3 17 -3 17 -5 0
-13 -11 -16 -25z"/>
<path d="M90 77 c0 -13 -5 -28 -12 -35 -9 -9 -8 -12 4 -12 9 0 19 7 22 16 9
24 7 54 -4 54 -5 0 -10 -10 -10 -23z"/>
<path d="M120 80 c0 -26 25 -26 27 0 1 11 -4 20 -13 20 -8 0 -14 -9 -14 -20z"/>
</g>
</svg>
